<svg xmlns="http://www.w3.org/2000/svg" width="443.329" height="118.484" viewBox="0 0 443.329 118.484">
  <g id="Group_80" data-name="Group 80" transform="translate(-1177.133 -781.265)">
    <g id="Group_11" data-name="Group 11" transform="translate(876.236 494)">
      <path id="Path_17" data-name="Path 17" d="M335.749,400.492l28.738-28.738a6.208,6.208,0,0,0-4.391-10.6,23.765,23.765,0,0,1-16.8-40.57l31.492-31.493a59.245,59.245,0,0,0-39.035,111.4Z" fill="#fff"/>
      <path id="Path_18" data-name="Path 18" d="M402.4,298.452l-36.374,36.375a6.208,6.208,0,0,0,4.39,10.6,23.765,23.765,0,0,1,16.8,40.569l-21.383,21.382c1.526.118,3.063.2,4.62.2A59.233,59.233,0,0,0,402.4,298.452Z" transform="translate(-10.318 -1.824)" fill="#fff"/>
    </g>
    <path id="Path_19" data-name="Path 19" d="M4.307-2.417V-16.479a27.021,27.021,0,0,0,8.306,4.812,26.7,26.7,0,0,0,9.053,1.6,20.075,20.075,0,0,0,4.68-.483,10.963,10.963,0,0,0,3.34-1.34,5.846,5.846,0,0,0,2-2.021,5.044,5.044,0,0,0,.659-2.527,5.462,5.462,0,0,0-1.055-3.3,11.349,11.349,0,0,0-2.878-2.681,30.076,30.076,0,0,0-4.329-2.373q-2.5-1.143-5.405-2.329Q11.294-30.19,7.668-34.629A16.406,16.406,0,0,1,4.043-45.352a17.078,17.078,0,0,1,1.978-8.459A16.8,16.8,0,0,1,11.4-59.634,24.138,24.138,0,0,1,19.292-63a40.532,40.532,0,0,1,9.492-1.077,57.092,57.092,0,0,1,8.723.593,34.306,34.306,0,0,1,7.009,1.824v13.14a21.194,21.194,0,0,0-3.45-1.934,27.332,27.332,0,0,0-3.845-1.384,29.33,29.33,0,0,0-3.933-.813,27.836,27.836,0,0,0-3.713-.264,19.365,19.365,0,0,0-4.395.461,11.272,11.272,0,0,0-3.34,1.3,6.45,6.45,0,0,0-2.109,2,4.739,4.739,0,0,0-.747,2.615,4.994,4.994,0,0,0,.835,2.834,9.578,9.578,0,0,0,2.373,2.373,25.183,25.183,0,0,0,3.735,2.2q2.2,1.077,4.966,2.219a55.335,55.335,0,0,1,6.79,3.362,24.137,24.137,0,0,1,5.164,4.021,15.664,15.664,0,0,1,3.3,5.12,18.09,18.09,0,0,1,1.143,6.7,17.951,17.951,0,0,1-2,8.855,16.233,16.233,0,0,1-5.427,5.8A23.534,23.534,0,0,1,31.882.132a46.1,46.1,0,0,1-9.6.967A53.392,53.392,0,0,1,12.415.22,29.782,29.782,0,0,1,4.307-2.417Zm66.05-2.812h-.176V20.7H56.294V-45H70.181v6.768h.176A16.324,16.324,0,0,1,84.814-46.1q8.745,0,13.513,6T103.1-23.774q0,11.25-5.559,18.062A18.125,18.125,0,0,1,82.749,1.1Q74.619,1.1,70.356-5.229Zm-.4-18.457v3.6a11.455,11.455,0,0,0,2.461,7.6,8.011,8.011,0,0,0,6.46,2.944,8.514,8.514,0,0,0,7.361-3.669q2.615-3.669,2.615-10.393,0-11.865-9.229-11.865a8.666,8.666,0,0,0-6.965,3.23A12.882,12.882,0,0,0,69.961-23.687ZM155.3,0H141.46V-25.576q0-9.888-7.207-9.888a7.378,7.378,0,0,0-5.977,2.769,10.678,10.678,0,0,0-2.285,7.031V0H112.1V-66.621h13.887v28.3h.176q5.1-7.778,13.843-7.778,15.293,0,15.293,18.457Zm51.416-18.545H177.363q.7,9.8,12.349,9.8a24.109,24.109,0,0,0,13.052-3.516v10.02q-6.24,3.34-16.216,3.34-10.9,0-16.919-6.042T163.608-21.8q0-11.206,6.5-17.754a21.668,21.668,0,0,1,16-6.548q9.844,0,15.227,5.845t5.383,15.864ZM193.843-27.07q0-9.668-7.822-9.668a7.468,7.468,0,0,0-5.779,2.769,12.566,12.566,0,0,0-2.966,6.9Zm50.493-5.405a12.046,12.046,0,0,0-5.845-1.362,8.42,8.42,0,0,0-7.075,3.318q-2.549,3.318-2.549,9.031V0H214.98V-45h13.887v8.35h.176q3.3-9.141,11.865-9.141a8.942,8.942,0,0,1,3.428.527Zm46.89,13.931H261.87q.7,9.8,12.349,9.8a24.109,24.109,0,0,0,13.052-3.516v10.02Q281.03,1.1,271.055,1.1q-10.9,0-16.919-6.042T248.115-21.8q0-11.206,6.5-17.754a21.668,21.668,0,0,1,16-6.548q9.844,0,15.227,5.845t5.383,15.864ZM278.35-27.07q0-9.668-7.822-9.668a7.468,7.468,0,0,0-5.779,2.769,12.566,12.566,0,0,0-2.966,6.9Z" transform="translate(1329.236 875)" fill="#fff"/>
  </g>
</svg>
